# xmcd
#
# Track frame offsets: 
#        150
#        17309
#        33615
#        46950
#        60983
#        71858
#
# Disc length: 1154 seconds
#
# Revision: 0
# Processed by: cddbd v1.5.2PL0 Copyright (c) Steve Scherf et al.
# Submitted via: ExactAudioCopy v0.99pb5
#
DISCID=47048006
DTITLE=Courtney Dashe - Paper Airplane
DYEAR=2009
DGENRE=Country
TTITLE0=Could We Pretend
TTITLE1=I'll See You Yesterday
TTITLE2=Everybody's Got One
TTITLE3=Paper Airplane
TTITLE4=In My Mind
TTITLE5=The Thing About Love
EXTD=
EXTT0=
EXTT1=
EXTT2=
EXTT3=
EXTT4=
EXTT5=
PLAYORDER=
